{"title":"Before Dawn 2012 DVDRip x264 AC3-FooKaS","uid":8274979,"size":1491342831,"categoryP":"video","categoryS":"movies","magnet":"?xt=urn:btih:844e1537fabcc453d2d753d87a74439d81f4290d&amp;dn=Before+Dawn+2012+DVDRip+x264+AC3-FooKaS&amp;tr=udp%3A%2F%2Ftracker.openbittorrent.com%3A80&amp;tr=udp%3A%2F%2Fopen.demonii.com%3A1337&amp;tr=udp%3A%2F%2Ftracker.coppersurfer.tk%3A6969&amp;tr=udp%3A%2F%2Fexodus.desync.com%3A6969","seeders":1,"leechers":0,"uploader":"Gh0stNet","files":3,"time":1363699199,"description":"General\nComplete name                            : Before Dawn 2012 DVDRip x264 AC3-FooKaS.mkv\nFormat                                   : Matroska\nFormat version                           : Version 4 / Version 2\nFile size                                : 1.39 GiB\nDuration                                 : 1h 22mn\nOverall bit rate                         : 2 421 Kbps\nEncoded date                             : UTC 2013-03-01 16:28:47\nWriting application                      : mkvmerge v6.0.0 ('Coming Up For Air') built on Jan 20 2013 09:52:00\nWriting library                          : libebml v1.3.0 + libmatroska v1.4.0\n\nVideo\nID                                       : 1\nFormat                                   : AVC\nFormat/Info                              : Advanced Video Codec\nFormat profile                           : &lt;a class=&quot;__cf_email__&quot; href=&quot;/cdn-cgi/l/email-protection&quot; data-cfemail=&quot;e3ab8a848ba3afd7cdd2&quot;&gt;[email&amp;#160;protected]&lt;/a&gt;&lt;script cf-hash='f9e31' type=&quot;text/javascript&quot;&gt;\n/* &lt;![CDATA[ */!function(){try{var t=&quot;currentScript&quot;in document?document.currentScript:function(){for(var t=document.getElementsByTagName(&quot;script&quot;),e=t.length;e--;)if(t[e].getAttribute(&quot;cf-hash&quot;))return t[e]}();if(t&amp;&amp;t.previousSibling){var e,r,n,i,c=t.previousSibling,a=c.getAttribute(&quot;data-cfemail&quot;);if(a){for(e=&quot;&quot;,r=parseInt(a.substr(0,2),16),n=2;a.length-n;n+=2)i=parseInt(a.substr(n,2),16)^r,e+=String.fromCharCode(i);e=document.createTextNode(e),c.parentNode.replaceChild(e,c)}}}catch(u){}}();/* ]]&gt; */&lt;/script&gt;\nFormat settings, CABAC                   : Yes\nFormat settings, ReFrames                : 7 frames\nCodec ID                                 : V_MPEG4/ISO/AVC\nDuration                                 : 1h 22mn\nBit rate                                 : 1 971 Kbps\nWidth                                    : 720 pixels\nHeight                                   : 304 pixels\nDisplay aspect ratio                     : 2.35:1\nFrame rate                               : 25.000 fps\nColor space                              : YUV\nChroma subsampling                       : 4:2:0\nBit depth                                : 8 bits\nScan type                                : Progressive\nBits/(Pixel*Frame)                       : 0.360\nStream size                              : 1.10 GiB (80%)\nWriting library                          : x264 core 129 r2245 bc13772\nLanguage                                 : English\nDefault                                  : Yes\nForced                                   : No\nColor primaries                          : Generic film\n\nAudio\nID                                       : 2\nFormat                                   : AC-3\nFormat/Info                              : Audio Coding 3\nMode extension                           : CM (complete main)\nCodec ID                                 : A_AC3\nDuration                                 : 1h 22mn\nBit rate mode                            : Constant\nBit rate                                 : 448 Kbps\nChannel(s)                               : 6 channels\nChannel positions                        : Front: L C R, Side: L R, LFE\nSampling rate                            : 48.0 KHz\nBit depth                                : 16 bits\nCompression mode                         : Lossy\nDelay relative to video                  : 15ms\nStream size                              : 263 MiB (19%)\nDefault                                  : Yes\nForced                                   : No\n\n\nScreens: &lt;a href=&quot;\nhttp://imgbox.com/abpBnXZT&quot; rel=&quot;nofollow&quot; target=&quot;_NEW&quot;&gt;\nhttp://imgbox.com/abpBnXZT&lt;/a&gt; &lt;a href=&quot;\nhttp://imgbox.com/abngH3L2&quot; rel=&quot;nofollow&quot; target=&quot;_NEW&quot;&gt;\nhttp://imgbox.com/abngH3L2&lt;/a&gt; &lt;a href=&quot;\nhttp://imgbox.com/acwELzZd&quot; rel=&quot;nofollow&quot; target=&quot;_NEW&quot;&gt;\nhttp://imgbox.com/acwELzZd&lt;/a&gt; &lt;a href=&quot;\nhttp://imgbox.com/adf6NTLK&quot; rel=&quot;nofollow&quot; target=&quot;_NEW&quot;&gt;\nhttp://imgbox.com/adf6NTLK&lt;/a&gt; &lt;a href=&quot;\nhttp://imgbox.com/adf4IeqR&quot; rel=&quot;nofollow&quot; target=&quot;_NEW&quot;&gt;\nhttp://imgbox.com/adf4IeqR&lt;/a&gt;","torrent":{"xt":"urn:btih:844e1537fabcc453d2d753d87a74439d81f4290d","amp;dn":"Before+Dawn+2012+DVDRip+x264+AC3-FooKaS","amp;tr":["udp%3A%2F%2Ftracker.openbittorrent.com%3A80","udp%3A%2F%2Fopen.demonii.com%3A1337","udp%3A%2F%2Ftracker.coppersurfer.tk%3A6969","udp%3A%2F%2Fexodus.desync.com%3A6969"],"infoHash":"844e1537fabcc453d2d753d87a74439d81f4290d","infoHashBuffer":{"type":"Buffer","data":[132,78,21,55,250,188,196,83,210,215,83,216,122,116,67,157,129,244,41,13]},"announce":[],"urlList":[]}}